<?xml version="1.0" encoding="iso-8859-1"?>
<!-- Generator: Adobe Illustrator 19.0.0, SVG Export Plug-In . SVG Version: 6.00 Build 0)  -->
<svg version="1.1" id="Capa_1" xmlns="http://www.w3.org/2000/svg" xmlns:xlink="http://www.w3.org/1999/xlink" x="0px" y="0px"
	 viewBox="-49 141 512 512" style="enable-background:new -49 141 512 512;" xml:space="preserve">
<circle style="fill:#F7A21D;" cx="207" cy="397" r="245"/>
<rect x="125.63" y="520.83" style="fill:#445EA0;" width="108" height="46.17"/>
<rect x="125.63" y="520.83" style="fill:#2E4C89;" width="19.842" height="46.17"/>
<path style="fill:#293D7C;" d="M284.134,591c0,2.75-2.25,5-5,5H80.131c-2.75,0-5-2.25-5-5v-20c0-2.75,2.25-5,5-5h199.003
	c2.75,0,5,2.25,5,5V591z"/>
<path style="fill:#1A2B63;" d="M94.973,591v-20c0-2.75,2.25-5,5-5H80.131c-2.75,0-5,2.25-5,5v20c0,2.75,2.25,5,5,5h19.842
	C97.223,596,94.973,593.75,94.973,591z"/>
<path style="fill:#293D7C;" d="M-49,511.834c0,5.5,4.5,10,10,10h300.175v-66.951H-49V511.834z"/>
<path style="fill:#1A2B63;" d="M-29.158,511.834v-56.951H-49v56.951c0,5.5,4.5,10,10,10h19.842
	C-24.658,521.834-29.158,517.334-29.158,511.834z"/>
<path style="fill:#445EA0;" d="M261.175,427.987c0-2.206,1.794-4,4-4h143.09V207.465c0-6.046-4.946-10.992-10.991-10.992H-38.008
	c-6.046,0-10.992,4.946-10.992,10.992v248.418h310.175V427.987z"/>
<path style="fill:#EEF6FF;" d="M261.175,427.987c0-2.206,1.794-4,4-4h121.107v-200.53c0-2.75-2.25-5-5-5H-22.016c-2.75,0-5,2.25-5,5
	v205.441c0,2.75,2.25,5,5,5h283.19L261.175,427.987L261.175,427.987z"/>
<circle style="fill:#445EA0;" cx="179.63" cy="489.21" r="13.911"/>
<path style="fill:#FFAF10;" d="M367.361,347.376c0,2.75-2.25,5-5,5H203.904c-2.75,0-5-2.25-5-5v-72.718c0-2.75,2.25-5,5-5h158.457
	c2.75,0,5,2.25,5,5L367.361,347.376L367.361,347.376z"/>
<path style="fill:#FF9518;" d="M218.747,347.376v-72.718c0-2.75,2.25-5,5-5h-19.842c-2.75,0-5,2.25-5,5v72.718c0,2.75,2.25,5,5,5
	h19.842C220.997,352.376,218.747,350.126,218.747,347.376z"/>
<g>
	<path style="fill:#C3DDF4;" d="M250.266,381.121h-43.112c-4.142,0-7.5-3.357-7.5-7.5s3.358-7.5,7.5-7.5h43.112
		c4.142,0,7.5,3.357,7.5,7.5S254.408,381.121,250.266,381.121z"/>
	<path style="fill:#C3DDF4;" d="M250.266,403.916h-43.112c-4.142,0-7.5-3.357-7.5-7.5s3.358-7.5,7.5-7.5h43.112
		c4.142,0,7.5,3.357,7.5,7.5S254.408,403.916,250.266,403.916z"/>
	<path style="fill:#C3DDF4;" d="M302.28,381.121h-32.06c-4.142,0-7.5-3.357-7.5-7.5s3.358-7.5,7.5-7.5h32.06
		c4.142,0,7.5,3.357,7.5,7.5S306.422,381.121,302.28,381.121z"/>
	<path style="fill:#C3DDF4;" d="M302.28,403.916h-32.06c-4.142,0-7.5-3.357-7.5-7.5s3.358-7.5,7.5-7.5h32.06
		c4.142,0,7.5,3.357,7.5,7.5S306.422,403.916,302.28,403.916z"/>
	<path style="fill:#C3DDF4;" d="M362.772,381.121h-40.836c-4.142,0-7.5-3.357-7.5-7.5s3.358-7.5,7.5-7.5h40.836
		c4.142,0,7.5,3.357,7.5,7.5S366.914,381.121,362.772,381.121z"/>
	<path style="fill:#C3DDF4;" d="M362.772,403.916h-40.836c-4.142,0-7.5-3.357-7.5-7.5s3.358-7.5,7.5-7.5h40.836
		c4.142,0,7.5,3.357,7.5,7.5S366.914,403.916,362.772,403.916z"/>
</g>
<g>
	<path style="fill:#EF8318;" d="M310.365,252.084c0,2.75-2.25,5-5,5h-10.999c-2.75,0-5-2.25-5-5v-10.999c0-2.75,2.25-5,5-5h10.999
		c2.75,0,5,2.25,5,5V252.084z"/>
	<path style="fill:#EF8318;" d="M338.363,252.084c0,2.75-2.25,5-5,5h-10.999c-2.75,0-5-2.25-5-5v-10.999c0-2.75,2.25-5,5-5h10.999
		c2.75,0,5,2.25,5,5V252.084z"/>
	<path style="fill:#EF8318;" d="M366.361,252.084c0,2.75-2.25,5-5,5h-10.999c-2.75,0-5-2.25-5-5v-10.999c0-2.75,2.25-5,5-5h10.999
		c2.75,0,5,2.25,5,5V252.084z"/>
</g>
<g>
	<path style="fill:#69CDFF;" d="M141.898,398.005h-9c-4.142,0-7.5-3.357-7.5-7.5s3.358-7.5,7.5-7.5h9c4.142,0,7.5,3.357,7.5,7.5
		S146.04,398.005,141.898,398.005z"/>
	<path style="fill:#69CDFF;" d="M107.898,398.005h-9c-4.142,0-7.5-3.357-7.5-7.5s3.358-7.5,7.5-7.5h9c4.142,0,7.5,3.357,7.5,7.5
		S112.04,398.005,107.898,398.005z"/>
	<path style="fill:#69CDFF;" d="M73.897,398.005h-9c-4.142,0-7.5-3.357-7.5-7.5s3.358-7.5,7.5-7.5h9c4.142,0,7.5,3.357,7.5,7.5
		C81.398,394.648,78.04,398.005,73.897,398.005z"/>
	<path style="fill:#69CDFF;" d="M39.897,398.005h-9c-4.142,0-7.5-3.357-7.5-7.5s3.358-7.5,7.5-7.5h9c4.142,0,7.5,3.357,7.5,7.5
		S44.04,398.005,39.897,398.005z"/>
	<path style="fill:#69CDFF;" d="M171.148,367.106c-4.142,0-7.5-3.357-7.5-7.5v-9c0-4.142,3.358-7.5,7.5-7.5s7.5,3.358,7.5,7.5v9
		C178.648,363.749,175.29,367.106,171.148,367.106z"/>
	<path style="fill:#69CDFF;" d="M171.148,333.106c-4.142,0-7.5-3.357-7.5-7.5v-9c0-4.142,3.358-7.5,7.5-7.5s7.5,3.358,7.5,7.5v9
		C178.648,329.749,175.29,333.106,171.148,333.106z"/>
	<path style="fill:#69CDFF;" d="M171.148,299.106c-4.142,0-7.5-3.357-7.5-7.5v-9c0-4.142,3.358-7.5,7.5-7.5s7.5,3.358,7.5,7.5v9
		C178.648,295.749,175.29,299.106,171.148,299.106z"/>
	<path style="fill:#69CDFF;" d="M1.147,367.106c-4.142,0-7.5-3.357-7.5-7.5v-9c0-4.142,3.358-7.5,7.5-7.5s7.5,3.358,7.5,7.5v9
		C8.647,363.749,5.29,367.106,1.147,367.106z"/>
	<path style="fill:#69CDFF;" d="M1.147,333.106c-4.142,0-7.5-3.357-7.5-7.5v-9c0-4.142,3.358-7.5,7.5-7.5s7.5,3.358,7.5,7.5v9
		C8.647,329.749,5.29,333.106,1.147,333.106z"/>
	<path style="fill:#69CDFF;" d="M1.147,299.106c-4.142,0-7.5-3.357-7.5-7.5v-9c0-4.142,3.358-7.5,7.5-7.5s7.5,3.358,7.5,7.5v9
		C8.647,295.749,5.29,299.106,1.147,299.106z"/>
	<path style="fill:#69CDFF;" d="M141.898,262.005h-9c-4.142,0-7.5-3.357-7.5-7.5s3.358-7.5,7.5-7.5h9c4.142,0,7.5,3.357,7.5,7.5
		S146.04,262.005,141.898,262.005z"/>
	<path style="fill:#69CDFF;" d="M107.898,262.005h-9c-4.142,0-7.5-3.357-7.5-7.5s3.358-7.5,7.5-7.5h9c4.142,0,7.5,3.357,7.5,7.5
		S112.04,262.005,107.898,262.005z"/>
	<path style="fill:#69CDFF;" d="M73.897,262.005h-9c-4.142,0-7.5-3.357-7.5-7.5s3.358-7.5,7.5-7.5h9c4.142,0,7.5,3.357,7.5,7.5
		S78.04,262.005,73.897,262.005z"/>
	<path style="fill:#69CDFF;" d="M39.897,262.005h-9c-4.142,0-7.5-3.357-7.5-7.5s3.358-7.5,7.5-7.5h9c4.142,0,7.5,3.357,7.5,7.5
		S44.04,262.005,39.897,262.005z"/>
</g>
<path style="fill:#5DC1D8;" d="M151.148,365.505c0,2.75-2.25,5-5,5h-120c-2.75,0-5-2.25-5-5v-86c0-2.75,2.25-5,5-5h120
	c2.75,0,5,2.25,5,5V365.505z"/>
<path style="fill:#28A5A5;" d="M40.99,365.505v-86c0-2.75,2.25-5,5-5H26.147c-2.75,0-5,2.25-5,5v86c0,2.75,2.25,5,5,5H45.99
	C43.24,370.505,40.99,368.255,40.99,365.505z"/>
<g>
	<path style="fill:#52BBEF;" d="M185.145,262.009c0,2.75-2.25,5-5,5h-21c-2.75,0-5-2.25-5-5v-21c0-2.75,2.25-5,5-5h21
		c2.75,0,5,2.25,5,5V262.009z"/>
	<path style="fill:#52BBEF;" d="M19.145,264.009c0,2.75-2.25,5-5,5h-21c-2.75,0-5-2.25-5-5v-21c0-2.75,2.25-5,5-5h21
		c2.75,0,5,2.25,5,5V264.009z"/>
	<path style="fill:#52BBEF;" d="M185.145,401.883c0,2.75-2.25,5-5,5h-21c-2.75,0-5-2.25-5-5v-21c0-2.75,2.25-5,5-5h21
		c2.75,0,5,2.25,5,5V401.883z"/>
	<path style="fill:#52BBEF;" d="M19.145,401.883c0,2.75-2.25,5-5,5h-21c-2.75,0-5-2.25-5-5v-21c0-2.75,2.25-5,5-5h21
		c2.75,0,5,2.25,5,5V401.883z"/>
</g>
<g>
	<path style="fill:#1E99D6;" d="M165.167,262.009v-21c0-2.75,2.25-5,5-5h-11.022c-2.75,0-5,2.25-5,5v21c0,2.75,2.25,5,5,5h11.022
		C167.417,267.009,165.167,264.759,165.167,262.009z"/>
	<path style="fill:#1E99D6;" d="M-0.833,264.009v-21c0-2.75,2.25-5,5-5H-6.855c-2.75,0-5,2.25-5,5v21c0,2.75,2.25,5,5,5H4.167
		C1.417,269.009-0.833,266.759-0.833,264.009z"/>
	<path style="fill:#1E99D6;" d="M165.167,401.883v-21c0-2.75,2.25-5,5-5h-11.022c-2.75,0-5,2.25-5,5v21c0,2.75,2.25,5,5,5h11.022
		C167.417,406.883,165.167,404.633,165.167,401.883z"/>
	<path style="fill:#1E99D6;" d="M-0.833,401.883v-21c0-2.75,2.25-5,5-5H-6.855c-2.75,0-5,2.25-5,5v21c0,2.75,2.25,5,5,5H4.167
		C1.417,406.883-0.833,404.633-0.833,401.883z"/>
</g>
<path style="fill:#5DC1D8;" d="M386.458,507.773c-0.155-0.422-0.143-0.662-0.121-0.74c0.001,0,0.062-0.006,0.119-0.006
	c0.114,0,0.313,0.023,0.614,0.134l42.104,15.465v-94.638c0-2.75-2.25-5-5-5h-159c-2.75,0-5,2.25-5,5v114.8c0,2.75,2.25,5,5,5h135.98
	L386.458,507.773z"/>
<path style="fill:#28A5A5;" d="M280.017,542.787v-114.8c0-2.75,2.25-5,5-5h-19.842c-2.75,0-5,2.25-5,5v114.8c0,2.75,2.25,5,5,5
	h19.842C282.267,547.787,280.017,545.537,280.017,542.787z"/>
<path style="fill:#293D7C;" d="M387.415,506.222c-1.647-0.605-2.501,0.248-1.896,1.896l26.365,71.782
	c0.605,1.648,2.116,1.98,3.357,0.739l13.997-13.997c1.241-1.241,3.272-1.241,4.515,0l16.128,16.13c1.241,1.241,3.272,1.241,4.514,0
	l7.674-7.674c1.241-1.241,1.241-3.273,0-4.514l-16.129-16.129c-1.241-1.241-1.241-3.272,0-4.514l13.996-13.997
	c1.242-1.24,0.909-2.751-0.739-3.356L387.415,506.222z"/>
</svg>
