<?xml version="1.0" encoding="iso-8859-1"?>
<!-- Generator: Adobe Illustrator 19.0.0, SVG Export Plug-In . SVG Version: 6.00 Build 0)  -->
<svg version="1.1" id="Layer_1" xmlns="http://www.w3.org/2000/svg" xmlns:xlink="http://www.w3.org/1999/xlink" x="0px" y="0px"
	 viewBox="0 0 864 864" style="enable-background:new 0 0 864 864;" xml:space="preserve">
<g>
	<g>
		<defs>
			<rect id="SVGID_1_" x="9.816" y="18.611" width="844.369" height="826.778"/>
		</defs>
		<clipPath id="SVGID_2_">
			<use xlink:href="#SVGID_1_"  style="overflow:visible;"/>
		</clipPath>
		<path style="clip-path:url(#SVGID_2_);fill:#F7A21D;" d="M635.095,786.191c-60.847,36.565-131.897,57.892-207.871,58.699
			C199.014,847.322,9.816,660.228,9.816,432c0-228.048,184.868-412.916,412.916-412.916c168.043,0,312.636,100.383,377.099,244.454
			c-162.339,41.726-279.042,157.229-279.042,293.181c0,83.342,43.848,158.996,115.193,214.683
			C640.937,775.264,640.489,782.952,635.095,786.191L635.095,786.191z M635.095,786.191"/>
	</g>
	<path style="fill:#BBE0FB;" d="M835.648,432c0,150.588-80.62,282.358-201.05,354.492H119.364
		c-27.924,0-50.557-22.642-50.557-50.565V338.598c0-31.875,25.837-57.72,57.721-57.72h680.588
		C825.531,327.683,835.648,378.66,835.648,432L835.648,432z M835.648,432"/>
	<path style="fill:#91CEFB;" d="M110.938,786.492c-27.924,0-50.565-22.642-50.565-50.565V336.778
		c0-13.965,11.322-25.278,25.287-25.278c13.958,0,25.278,11.313,25.278,25.278V786.492z M110.938,786.492"/>
	<path style="fill:#63BCFA;" d="M214.586,430.316H105.038c-6.984,0-12.635-5.66-12.635-12.644c0-6.981,5.651-12.635,12.635-12.635
		h109.548c6.984,0,12.644,5.653,12.644,12.635C227.23,424.656,221.57,430.316,214.586,430.316L214.586,430.316z M349.412,455.594
		H206.16c-6.984,0-12.644,5.662-12.644,12.644c0,6.975,5.66,12.637,12.644,12.637h143.252c6.984,0,12.644-5.662,12.644-12.637
		C362.056,461.256,356.396,455.594,349.412,455.594L349.412,455.594z M349.412,607.275H206.16c-6.984,0-12.644,5.66-12.644,12.643
		c0,6.984,5.66,12.644,12.644,12.644h143.252c6.984,0,12.644-5.66,12.644-12.644C362.056,612.935,356.396,607.275,349.412,607.275
		L349.412,607.275z M349.412,657.84H206.16c-6.984,0-12.644,5.66-12.644,12.644c0,6.975,5.66,12.635,12.644,12.635h143.252
		c6.984,0,12.644-5.66,12.644-12.635C362.056,663.5,356.396,657.84,349.412,657.84L349.412,657.84z M534.806,607.275h-126.4
		c-6.984,0-12.644,5.66-12.644,12.643c0,6.984,5.66,12.644,12.644,12.644h126.4c6.984,0,12.644-5.66,12.644-12.644
		C547.45,612.935,541.79,607.275,534.806,607.275L534.806,607.275z M593.798,607.275c-6.984,0-12.644,5.66-12.644,12.643
		c0,6.984,5.66,12.644,12.644,12.644c6.975,0,12.635-5.66,12.635-12.644C606.433,612.935,600.773,607.275,593.798,607.275
		L593.798,607.275z M484.25,657.84h-75.844c-6.984,0-12.644,5.66-12.644,12.644c0,6.975,5.66,12.635,12.644,12.635h75.844
		c6.975,0,12.635-5.66,12.635-12.635C496.884,663.5,491.225,657.84,484.25,657.84L484.25,657.84z M206.16,531.44h92.696
		c6.984,0,12.644-5.662,12.644-12.644c0-6.984-5.66-12.644-12.644-12.644H206.16c-6.984,0-12.644,5.66-12.644,12.644
		C193.516,525.778,199.176,531.44,206.16,531.44L206.16,531.44z M206.16,531.44"/>
	<path style="fill:#05A2F9;" d="M818.787,219.646c9.312,0,16.861,7.54,16.861,16.852v33.704c0,18.622-15.091,33.713-33.713,33.713
		H94.085c-18.622,0-33.713-15.091-33.713-33.713V169.08c0-9.303,7.551-16.852,16.861-16.852h210.002
		c10.539,0,19.97,6.535,23.673,16.406l19.128,51.012H818.787z M818.787,219.646"/>
	<path style="fill:#0280E3;" d="M144.642,303.915H94.085c-18.622,0-33.713-15.091-33.713-33.713V169.08
		c0-9.303,7.551-16.852,16.861-16.852h50.557c-9.31,0-16.852,7.549-16.852,16.852v101.122
		C110.938,288.824,126.031,303.915,144.642,303.915L144.642,303.915z M262.618,207.002v-8.426c0-6.984-5.66-12.635-12.635-12.635
		h-92.698c-6.981,0-12.644,5.651-12.644,12.635v8.426c0,6.984,5.662,12.644,12.644,12.644h92.698
		C256.958,219.646,262.618,213.986,262.618,207.002L262.618,207.002z M262.618,207.002"/>
	<path style="fill:#008A80;" d="M159.812,619.918c0,6.984-5.66,12.644-12.635,12.644h-42.139c-6.984,0-12.635-5.66-12.635-12.644
		c0-6.984,5.651-12.643,12.635-12.643h42.139C154.152,607.275,159.812,612.935,159.812,619.918L159.812,619.918z M105.038,531.44
		h42.139c6.975,0,12.635-5.662,12.635-12.644c0-6.984-5.66-12.644-12.635-12.644h-42.139c-6.984,0-12.635,5.66-12.635,12.644
		C92.403,525.778,98.054,531.44,105.038,531.44L105.038,531.44z M105.038,531.44"/>
	<path style="fill:#FD4FB6;" d="M92.403,468.237c0-6.981,5.651-12.644,12.635-12.644h42.139c6.975,0,12.635,5.662,12.635,12.644
		c0,6.975-5.66,12.637-12.635,12.637h-42.139C98.054,480.874,92.403,475.212,92.403,468.237L92.403,468.237z M147.177,657.84
		h-42.139c-6.984,0-12.635,5.66-12.635,12.644c0,6.975,5.651,12.635,12.635,12.635h42.139c6.975,0,12.635-5.66,12.635-12.635
		C159.812,663.5,154.152,657.84,147.177,657.84L147.177,657.84z M180.882,556.718h-75.844c-6.984,0-12.635,5.66-12.635,12.644
		c0,6.975,5.651,12.635,12.635,12.635h75.844c6.984,0,12.635-5.66,12.635-12.635C193.516,562.378,187.865,556.718,180.882,556.718
		L180.882,556.718z M180.882,556.718"/>
	<rect x="60.372" y="270.202" style="fill:#FD4FB6;" width="775.276" height="67.418"/>
	<rect x="60.372" y="270.202" style="fill:#F02399;" width="50.565" height="67.418"/>
	<path style="fill:#D80D80;" d="M119.364,303.915c0,6.975-5.66,12.635-12.644,12.635c-6.975,0-12.635-5.66-12.635-12.635
		c0-6.984,5.66-12.644,12.635-12.644C113.704,291.272,119.364,296.932,119.364,303.915L119.364,303.915z M148.859,291.272
		c-6.981,0-12.644,5.66-12.644,12.644c0,6.975,5.662,12.635,12.644,12.635c6.984,0,12.635-5.66,12.635-12.635
		C161.494,296.932,155.843,291.272,148.859,291.272L148.859,291.272z M190.992,291.272c-6.984,0-12.637,5.66-12.637,12.644
		c0,6.975,5.653,12.635,12.637,12.635c6.981,0,12.644-5.66,12.644-12.635C203.636,296.932,197.973,291.272,190.992,291.272
		L190.992,291.272z M190.992,291.272"/>
	<path style="fill:#172A7D;" d="M382.286,405.037V101.669c0-13.965,11.311-25.278,25.278-25.278h421.342
		c13.958,0,25.278,11.313,25.278,25.278v303.368c0,13.958-11.32,25.278-25.278,25.278H407.564
		C393.597,430.316,382.286,418.996,382.286,405.037L382.286,405.037z M382.286,405.037"/>
	<path style="fill:#1F3595;" d="M854.184,101.669v303.368c0,13.958-11.32,25.278-25.278,25.278H627.502L570.435,498.8
		c-3.89,4.664-9.646,7.362-15.711,7.362c-12.626,0-22.237-11.348-20.157-23.812l8.666-52.034h-71.626
		c-13.958,0-25.278-11.32-25.278-25.278V101.669c0-13.965,11.32-25.278,25.278-25.278h357.3
		C842.865,76.391,854.184,87.704,854.184,101.669L854.184,101.669z M854.184,101.669"/>
	<path style="fill:#FFF5F5;" d="M665.072,173.047l-67.589,169.949c-1.977,4.956-6.726,7.971-11.751,7.971
		c-1.555,0-3.136-0.29-4.673-0.901c-6.484-2.577-9.655-9.928-7.069-16.415l67.589-169.949c2.586-6.484,9.939-9.644,16.415-7.067
		C664.487,159.209,667.649,166.562,665.072,173.047L665.072,173.047z M784.001,245.284l-45.394-75.285
		c-3.608-5.979-11.373-7.903-17.351-4.294c-5.979,3.597-7.903,11.37-4.303,17.349l41.537,68.886l-41.649,71.894
		c-3.496,6.047-1.434,13.776,4.604,17.272c1.992,1.159,4.174,1.708,6.322,1.708c4.363,0,8.606-2.258,10.95-6.304l45.396-78.359
		C786.424,254.166,786.38,249.236,784.001,245.284L784.001,245.284z M477.979,251.94l41.53-68.886
		c3.608-5.979,1.682-13.752-4.294-17.349c-5.979-3.608-13.752-1.684-17.351,4.294l-45.394,75.285
		c-2.379,3.951-2.423,8.881-0.112,12.868l45.385,78.359c2.355,4.046,6.59,6.304,10.953,6.304c2.146,0,4.33-0.55,6.322-1.7
		c6.047-3.496,8.107-11.234,4.604-17.274L477.979,251.94z M477.979,251.94"/>
</g>
</svg>
