<?xml version="1.0" encoding="iso-8859-1"?>
<!-- Generator: Adobe Illustrator 19.0.0, SVG Export Plug-In . SVG Version: 6.00 Build 0)  -->
<svg version="1.1" id="Layer_1" xmlns="http://www.w3.org/2000/svg" xmlns:xlink="http://www.w3.org/1999/xlink" x="0px" y="0px"
	 viewBox="-49 141 512 512" style="enable-background:new -49 141 512 512;" xml:space="preserve">
<circle style="fill:#F7A21D;" cx="207" cy="397" r="254"/>
<g>
	<path style="fill:#05A2F9;" d="M237.8,395v109.2c35.6,6.8,65.6,29.6,82,60.4c8.4-16.4,13.6-34.8,13.6-54.4
		C333.4,453,292.2,405.4,237.8,395z"/>
	<path style="fill:#05A2F9;" d="M183.4,395v109.2c-35.6,6.8-65.6,29.6-82,60.4c-8.4-16.4-13.6-34.8-13.6-54.4
		C87.8,453,129,405.4,183.4,395z"/>
</g>
<path style="fill:#FFFFFF;" d="M207.4,223.4L207.4,223.4c-29.6,37.6-46,84-46,131.6v169.2h92V355.4
	C253.4,307.4,237.4,261,207.4,223.4z"/>
<path style="fill:#4CDBC4;" d="M161.4,524.6v13.6c0,4.4,3.6,8,8,8h76c4.4,0,8-3.6,8-8v-13.6H161.4z"/>
<g>
	<polygon style="fill:#FFFFFF;" points="271.8,599 262.6,579.8 253.4,599 244.2,579.8 235.4,599 235.4,563 271.8,563 	"/>
	<polygon style="fill:#FFFFFF;" points="179.8,599 170.6,579.8 161.4,599 152.2,579.8 143.4,599 143.4,563 179.8,563 	"/>
	<path style="fill:#FFFFFF;" d="M116.2,268.6c-2-11.2-11.6-19.6-23.2-19.6c-3.2,0-6.4,0.8-9.2,2c-4.4-8-13.2-13.2-22.8-13.2
		c-14.8,0-26.4,12-26.4,26.4c0,2.4,0.4,4.8,1.2,7.2c-5.6,3.6-9.6,9.6-9.6,16.8c0,10.8,8.8,19.6,19.6,19.6h70.4
		c10.8,0,19.6-8.8,19.6-19.6C135.8,277.4,127,268.6,116.2,268.6z"/>
	<path style="fill:#FFFFFF;" d="M401,359.4c-2.4-13.6-14-24-28.4-24c-4,0-8,0.8-11.6,2.4c-5.6-9.6-16-16.4-28.4-16.4
		c-18,0-32.8,14.8-32.8,32.8c0,3.2,0.4,6,1.2,8.8c-6.8,4.4-11.6,12-11.6,20.8c0,13.2,10.8,24.4,24.4,24.4h86.8
		c13.2,0,24.4-10.8,24.4-24.4C425,370.2,414.2,359.4,401,359.4z"/>
</g>
<g>
	<path style="fill:#324A5E;" d="M161.4,474.6c-14,0-25.6,34.4-27.6,79.2c0,4.8,3.6,9.2,8.8,9.2h37.2c4.8,0,8.8-4,8.8-9.2
		C187.4,509,175.8,474.6,161.4,474.6z"/>
	<path style="fill:#324A5E;" d="M253.4,474.6c-14,0-25.6,34.4-27.6,79.2c0,4.8,3.6,9.2,8.8,9.2h37.2c4.8,0,8.8-4,8.8-9.2
		C279.4,509,267.8,474.6,253.4,474.6z"/>
</g>
<circle style="fill:#4CDBC4;" cx="207.4" cy="339" r="25.6"/>
</svg>
