<?xml version="1.0" encoding="iso-8859-1"?>
<!-- Generator: Adobe Illustrator 19.0.0, SVG Export Plug-In . SVG Version: 6.00 Build 0)  -->
<svg version="1.1" id="Layer_1" xmlns="http://www.w3.org/2000/svg" xmlns:xlink="http://www.w3.org/1999/xlink" x="0px" y="0px"
	 viewBox="0 0 864 864" style="enable-background:new 0 0 864 864;" xml:space="preserve">
<g>
	<path style="fill:#F7A21D;" d="M856.487,431.802c0,233.994-189.692,423.684-423.684,423.684
		c-234.002,0-423.692-189.69-423.692-423.684c0-234,189.69-423.69,423.692-423.69C666.795,8.112,856.487,197.802,856.487,431.802
		L856.487,431.802z M856.487,431.802"/>
	<path style="fill:#FFFFFF;" d="M286.024,253.061l28.082-28.09c5.139-5.141,5.139-13.577,0-18.716
		c-5.141-5.147-13.586-5.147-18.725,0l-28.082,28.074l-28.082-28.074c-5.149-5.147-13.586-5.147-18.725,0
		c-5.141,5.131-5.141,13.575,0,18.716l28.074,28.082l-28.074,28.082c-5.141,5.149-5.141,13.586,0,18.725
		c5.139,5.147,13.575,5.147,18.725,0l28.082-28.074l28.082,28.074c5.139,5.147,13.584,5.147,18.725,0
		c5.139-5.139,5.139-13.575,0-18.716L286.024,253.061z M286.024,253.061"/>
	<path style="fill:#FFFFFF;" d="M391.953,656.889l28.074-28.09c5.139-5.139,5.139-13.576,0-18.716
		c-5.139-5.147-13.578-5.147-18.725,0l-28.082,28.074l-28.082-28.074c-5.147-5.147-13.586-5.147-18.725,0
		c-5.139,5.141-5.139,13.578,0,18.716l28.074,28.09l-28.074,28.082c-5.139,5.141-5.139,13.578,0,18.716
		c5.139,5.149,13.577,5.149,18.725,0l28.082-28.074l28.082,28.074c5.141,5.149,13.586,5.149,18.725,0
		c5.139-5.139,5.139-13.575,0-18.716L391.953,656.889z M391.953,656.889"/>
	<path style="fill:#FFFFFF;" d="M603.794,418.557l28.074-28.082c5.149-5.141,5.149-13.586,0-18.716
		c-5.139-5.147-13.575-5.147-18.723,0l-28.084,28.074l-28.082-28.074c-5.139-5.147-13.584-5.147-18.716,0
		c-5.147,5.131-5.147,13.575,0,18.716l28.076,28.082l-28.076,28.082c-5.147,5.149-5.147,13.586,0,18.725
		c5.133,5.147,13.578,5.147,18.716,0l28.082-28.074l28.084,28.074c5.147,5.147,13.584,5.147,18.723,0
		c5.149-5.139,5.149-13.575,0-18.716L603.794,418.557z M603.794,418.557"/>
	<path style="fill:#05A2F9;" d="M205.519,703.236c-5.884,0-11.234-3.945-12.802-9.893c-13.108-49.941-1.843-104.45,30.07-145.825
		c34.532-44.73,87.957-69.377,150.433-69.377c37.714,0,78.776,16.219,118.486,31.913c78.381,30.958,152.404,60.204,208.287-19.645
		c23.775-33.966,31.226-69.313,22.175-105.066c-13.925-54.887-66.049-108.434-143.022-146.924
		c-6.537-3.273-9.196-11.217-5.923-17.771c3.265-6.537,11.209-9.212,17.763-5.931c83.883,41.941,141.057,101.758,156.848,164.114
		c11.039,43.559,2.247,86.203-26.135,126.747c-67.873,96.981-159.159,60.916-239.714,29.1
		c-39.121-15.452-76.093-30.053-108.765-30.053c-54.089,0-100.053,20.978-129.453,59.064c-26.952,34.919-36.471,80.894-25.44,122.94
		c1.85,7.063-2.377,14.312-9.463,16.155C207.757,703.089,206.625,703.236,205.519,703.236L205.519,703.236z M205.519,703.236"/>
	<path style="fill:#05A2F9;" d="M578.434,286.154c-6.076,0-11.54-4.193-12.913-10.361l-13.236-59.584
		c-1.56-7.005,2.747-13.971,9.713-15.708l52.965-13.246c7.071-1.794,14.271,2.538,16.056,9.634
		c1.779,7.094-2.545,14.279-9.632,16.064l-40.447,10.102l10.441,46.993c1.593,7.135-2.909,14.206-10.061,15.808
		C580.35,286.048,579.396,286.154,578.434,286.154L578.434,286.154z M578.434,286.154"/>
	<path style="fill:#05A2F9;" d="M452.657,226.579c-36.502,0-66.202-29.698-66.202-66.202c0-36.502,29.7-66.202,66.202-66.202
		c36.504,0,66.202,29.7,66.202,66.202C518.859,196.881,489.161,226.579,452.657,226.579L452.657,226.579z M452.657,120.65
		c-21.9,0-39.719,17.819-39.719,39.727c0,21.9,17.819,39.719,39.719,39.719c21.909,0,39.729-17.819,39.729-39.719
		C492.387,138.469,474.566,120.65,452.657,120.65L452.657,120.65z M452.657,120.65"/>
</g>
</svg>
