<?xml version="1.0" encoding="utf-8"?>
<!-- Generator: Adobe Illustrator 19.0.0, SVG Export Plug-In . SVG Version: 6.00 Build 0)  -->
<svg version="1.1" id="Capa_1" xmlns="http://www.w3.org/2000/svg" xmlns:xlink="http://www.w3.org/1999/xlink" x="0px" y="0px"
	 viewBox="-49 141 512 512" style="enable-background:new -49 141 512 512;" xml:space="preserve">
<circle style="fill:#F7A21D;" cx="207" cy="399" r="254"/>
<path style="fill:#CAE8F9;" d="M332,274.241h-56.367v-56.367c0-6.314-4.96-11.273-11.273-11.273H84.342
	c-18.715,0-33.82,15.106-33.82,33.82V557.58c0,18.713,15.105,33.82,33.82,33.82h225.112c18.715,0,33.82-15.107,33.82-33.82V285.514
	C343.274,279.2,338.314,274.241,332,274.241z"/>
<path style="fill:#B7E0F6;" d="M343.274,285.514V557.58c0,18.713-15.105,33.82-33.82,33.82H196.719V206.6h67.641
	c6.314,0,11.273,4.96,11.273,11.273v56.367H332C338.314,274.241,343.274,279.2,343.274,285.514z"/>
<path style="fill:#CAE8F9;" d="M343.274,296.787H264.36c-6.231,0-11.273-5.042-11.273-11.273V206.6h24.572
	c8.851,0,17.526,3.589,23.78,9.853l31.993,32.004c6.253,6.276,9.842,14.928,9.842,23.758V296.787z"/>
<path style="fill:#1689FC;" d="M425.345,327.451c-12.625-12.852-35.172-12.852-47.799,0l-11.499,11.725l-8.117,7.891
	c-4.511,4.284-4.511,11.499,0,15.783l16.008,16.009l16.01,16.008c4.057,4.509,11.725,4.509,15.782,0l8.117-7.891l11.499-11.725
	C438.647,362.624,438.647,340.077,425.345,327.451z"/>
<path style="fill:#FEDBAB;" d="M296.826,455.968l-23.224-23.224c-0.449-0.45-0.9-0.45-1.351,0l-0.674,0.452
	c-1.354,1.353-2.257,2.931-2.709,4.509l-16.008,48.025c-1.58,4.509-0.225,8.793,2.706,11.499v0.224
	c3.157,2.931,7.44,4.058,11.499,2.481l48.025-16.009c1.58-0.452,3.157-1.353,4.509-2.706l0.452-0.452
	c0.452-0.45,0.452-0.901,0-1.353C312.611,471.751,304.494,463.634,296.826,455.968z"/>
<g>
	<path style="fill:#17ACE8;" d="M264.36,341.881H106.888c-14.879,0-14.879-22.547,0-22.547H264.36
		C279.239,319.334,279.239,341.881,264.36,341.881z"/>
	<path style="fill:#17ACE8;" d="M219.266,386.975H106.888c-14.879,0-14.879-22.547,0-22.547h112.377
		C234.145,364.428,234.145,386.975,219.266,386.975z"/>
	<path style="fill:#17ACE8;" d="M219.266,432.069H106.888c-14.879,0-14.879-22.547,0-22.547h112.377
		C234.145,409.522,234.145,432.069,219.266,432.069z"/>
	<path style="fill:#17ACE8;" d="M219.266,477.163H106.888c-14.879,0-14.879-22.547,0-22.547h112.377
		C234.145,454.616,234.145,477.163,219.266,477.163z"/>
	<path style="fill:#17ACE8;" d="M264.36,546.306h-67.641c-14.879,0-14.879-22.547,0-22.547h67.641
		C279.239,523.759,279.239,546.306,264.36,546.306z"/>
</g>
<path style="fill:#FEC478;" d="M296.826,455.968c7.668,7.665,15.784,15.783,23.224,23.448c0.452,0.452,0.452,0.903,0,1.353
	l-0.452,0.452c-1.351,1.353-2.928,2.254-4.509,2.706l-48.025,16.009c-4.06,1.577-8.342,0.45-11.499-2.481v-0.225L296.826,455.968z"
	/>
<path style="fill:#136EF1;" d="M425.345,375.25l-11.5,11.725l-8.117,7.891c-4.057,4.509-11.725,4.509-15.782,0l-16.009-16.008
	l51.408-51.408C438.647,340.077,438.647,362.624,425.345,375.25z"/>
<path style="fill:#FD003A;" d="M413.845,386.975l-8.117,7.891c-44.642,44.418-29.763,29.536-69.898,69.671
	c0,0.45-16.008,16.458-16.233,16.685c-1.351,1.353-2.928,2.254-4.509,2.706l-46.222-46.221c0.452-1.578,1.354-3.157,2.709-4.509
	c0.225-0.225,16.233-16.235,16.685-16.235c29.309-29.311,14.879-14.655,69.669-69.895l7.891-8.117L413.845,386.975z"/>
<path style="fill:#E50027;" d="M413.845,386.975l-8.117,7.891c-44.642,44.418-29.763,29.536-69.898,69.671
	c0,0.45-16.008,16.458-16.233,16.685c-1.351,1.353-2.928,2.254-4.509,2.706l-22.999-22.999l97.856-97.853L413.845,386.975z"/>
<g>
	<path style="fill:#1689FC;" d="M219.266,477.163h-22.547v-22.547h22.547C234.145,454.616,234.145,477.163,219.266,477.163z"/>
	<path style="fill:#1689FC;" d="M219.266,432.069h-22.547v-22.547h22.547C234.145,409.522,234.145,432.069,219.266,432.069z"/>
	<path style="fill:#1689FC;" d="M219.266,386.975h-22.547v-22.547h22.547C234.145,364.428,234.145,386.975,219.266,386.975z"/>
	<path style="fill:#1689FC;" d="M264.36,546.306h-67.641v-22.547h67.641C279.239,523.759,279.239,546.306,264.36,546.306z"/>
	<path style="fill:#1689FC;" d="M264.36,341.881h-67.641v-22.547h67.641C279.239,319.334,279.239,341.881,264.36,341.881z"/>
</g>
</svg>
